<svg width="1648" height="221" viewBox="0 0 1648 221" fill="none" xmlns="http://www.w3.org/2000/svg">
<path fill-rule="evenodd" clip-rule="evenodd" d="M116.912 4.53165C106.447 -1.51055 93.5529 -1.51055 83.0877 4.53165L16.9123 42.738C6.44691 48.7802 0 59.9467 0 72.0308V148.444C0 160.528 6.44691 171.694 16.9123 177.737L83.0877 215.943C93.5529 221.986 106.447 221.986 116.912 215.943L183.088 177.737C193.553 171.694 200 160.528 200 148.444V72.0308C200 59.9467 193.553 48.7802 183.088 42.738L116.912 4.53165ZM100 186.051C141.871 186.051 175.814 152.109 175.814 110.238C175.814 68.3671 141.871 34.4241 100 34.4241C58.1297 34.4241 24.1867 68.3671 24.1867 110.238C24.1867 152.109 58.1297 186.051 100 186.051Z" fill="url(#paint0_linear_108_95716)"/>
<path d="M257.043 151V49.1818H295.224C303.046 49.1818 309.609 50.6401 314.912 53.5568C320.248 56.4735 324.275 60.4839 326.993 65.5881C329.744 70.6591 331.119 76.4261 331.119 82.8892C331.119 89.4186 329.744 95.2187 326.993 100.29C324.242 105.361 320.182 109.355 314.812 112.271C309.443 115.155 302.831 116.597 294.976 116.597H269.67V101.433H292.49C297.064 101.433 300.809 100.638 303.726 99.0469C306.643 97.456 308.797 95.2685 310.189 92.4844C311.614 89.7003 312.327 86.5019 312.327 82.8892C312.327 79.2765 311.614 76.0947 310.189 73.3438C308.797 70.5928 306.626 68.455 303.676 66.9304C300.759 65.3726 296.998 64.5938 292.391 64.5938H275.487V151H257.043ZM362.942 49.1818V151H344.945V49.1818H362.942ZM402.023 152.541C397.184 152.541 392.826 151.679 388.948 149.956C385.103 148.199 382.054 145.614 379.8 142.2C377.579 138.786 376.469 134.577 376.469 129.572C376.469 125.264 377.265 121.701 378.856 118.884C380.446 116.066 382.617 113.812 385.368 112.122C388.119 110.432 391.218 109.156 394.665 108.294C398.145 107.399 401.741 106.753 405.454 106.355C409.928 105.891 413.557 105.477 416.341 105.112C419.125 104.714 421.147 104.118 422.407 103.322C423.699 102.494 424.346 101.218 424.346 99.4943V99.196C424.346 95.4508 423.235 92.5507 421.015 90.4957C418.794 88.4408 415.596 87.4134 411.419 87.4134C407.011 87.4134 403.515 88.3745 400.929 90.2969C398.377 92.2192 396.654 94.4896 395.759 97.108L378.955 94.7216C380.281 90.0814 382.468 86.2036 385.517 83.0881C388.567 79.9394 392.295 77.5862 396.704 76.0284C401.112 74.4375 405.984 73.642 411.32 73.642C414.999 73.642 418.661 74.0729 422.307 74.9347C425.953 75.7964 429.284 77.2216 432.3 79.2102C435.316 81.1657 437.736 83.8338 439.559 87.2145C441.415 90.5952 442.343 94.821 442.343 99.892V151H425.042V140.51H424.445C423.351 142.631 421.81 144.62 419.821 146.476C417.866 148.299 415.397 149.774 412.414 150.901C409.464 151.994 406 152.541 402.023 152.541ZM406.696 139.317C410.309 139.317 413.441 138.604 416.093 137.179C418.744 135.721 420.783 133.798 422.208 131.412C423.666 129.026 424.395 126.424 424.395 123.607V114.608C423.832 115.072 422.871 115.503 421.512 115.901C420.186 116.298 418.695 116.646 417.037 116.945C415.38 117.243 413.74 117.508 412.115 117.74C410.491 117.972 409.083 118.171 407.89 118.337C405.205 118.701 402.802 119.298 400.681 120.126C398.56 120.955 396.886 122.115 395.66 123.607C394.433 125.065 393.82 126.954 393.82 129.274C393.82 132.589 395.03 135.091 397.449 136.781C399.869 138.472 402.951 139.317 406.696 139.317ZM477.037 106.256V151H459.039V74.6364H476.241V87.6122H477.136C478.893 83.3366 481.693 79.9394 485.538 77.4205C489.416 74.9015 494.205 73.642 499.906 73.642C505.176 73.642 509.766 74.7689 513.677 77.0227C517.621 79.2765 520.671 82.5412 522.825 86.8168C525.012 91.0923 526.09 96.2794 526.056 102.378V151H508.059V105.162C508.059 100.058 506.733 96.0639 504.082 93.1804C501.464 90.2969 497.834 88.8551 493.194 88.8551C490.046 88.8551 487.245 89.5511 484.792 90.9432C482.373 92.3021 480.467 94.2741 479.075 96.8594C477.716 99.4446 477.037 102.577 477.037 106.256ZM576.759 152.491C569.102 152.491 562.49 150.901 556.922 147.719C551.387 144.504 547.128 139.963 544.145 134.097C541.162 128.197 539.671 121.253 539.671 113.266C539.671 105.411 541.162 98.5166 544.145 92.5838C547.161 86.6179 551.37 81.9777 556.773 78.6633C562.175 75.3158 568.522 73.642 575.814 73.642C580.52 73.642 584.962 74.4044 589.138 75.929C593.347 77.4205 597.059 79.7405 600.274 82.8892C603.522 86.0379 606.074 90.0483 607.931 94.9205C609.787 99.7595 610.715 105.527 610.715 112.222V117.74H548.122V105.609H593.463C593.43 102.162 592.684 99.0966 591.226 96.4119C589.768 93.6941 587.729 91.5563 585.111 89.9986C582.526 88.4408 579.51 87.6619 576.063 87.6619C572.384 87.6619 569.152 88.5568 566.368 90.3466C563.584 92.1032 561.413 94.4233 559.855 97.3068C558.331 100.157 557.552 103.289 557.519 106.703V117.293C557.519 121.734 558.331 125.545 559.955 128.727C561.579 131.876 563.849 134.295 566.766 135.986C569.682 137.643 573.096 138.472 577.007 138.472C579.626 138.472 581.995 138.107 584.117 137.378C586.238 136.616 588.077 135.505 589.635 134.047C591.193 132.589 592.369 130.782 593.165 128.628L609.969 130.517C608.908 134.958 606.887 138.836 603.904 142.151C600.954 145.432 597.175 147.984 592.568 149.807C587.961 151.597 582.691 152.491 576.759 152.491ZM662.672 74.6364V88.5568H618.773V74.6364H662.672ZM629.611 56.3409H647.608V128.031C647.608 130.451 647.973 132.307 648.702 133.599C649.464 134.859 650.459 135.721 651.685 136.185C652.911 136.649 654.27 136.881 655.762 136.881C656.889 136.881 657.916 136.798 658.844 136.632C659.805 136.466 660.534 136.317 661.032 136.185L664.064 150.254C663.103 150.586 661.728 150.95 659.938 151.348C658.181 151.746 656.027 151.978 653.475 152.044C648.967 152.177 644.907 151.497 641.294 150.006C637.682 148.481 634.815 146.128 632.694 142.946C630.605 139.764 629.578 135.787 629.611 131.014V56.3409ZM698.298 152.541C693.459 152.541 689.101 151.679 685.223 149.956C681.378 148.199 678.329 145.614 676.075 142.2C673.855 138.786 672.744 134.577 672.744 129.572C672.744 125.264 673.54 121.701 675.131 118.884C676.721 116.066 678.892 113.812 681.643 112.122C684.394 110.432 687.493 109.156 690.94 108.294C694.42 107.399 698.016 106.753 701.729 106.355C706.203 105.891 709.832 105.477 712.616 105.112C715.4 104.714 717.422 104.118 718.682 103.322C719.974 102.494 720.621 101.218 720.621 99.4943V99.196C720.621 95.4508 719.51 92.5507 717.29 90.4957C715.069 88.4408 711.871 87.4134 707.694 87.4134C703.286 87.4134 699.79 88.3745 697.204 90.2969C694.652 92.2192 692.929 94.4896 692.034 97.108L675.23 94.7216C676.556 90.0814 678.743 86.2036 681.792 83.0881C684.842 79.9394 688.57 77.5862 692.979 76.0284C697.387 74.4375 702.259 73.642 707.595 73.642C711.274 73.642 714.936 74.0729 718.582 74.9347C722.228 75.7964 725.559 77.2216 728.575 79.2102C731.591 81.1657 734.011 83.8338 735.834 87.2145C737.69 90.5952 738.618 94.821 738.618 99.892V151H721.317V140.51H720.72C719.626 142.631 718.085 144.62 716.096 146.476C714.141 148.299 711.672 149.774 708.689 150.901C705.739 151.994 702.275 152.541 698.298 152.541ZM702.971 139.317C706.584 139.317 709.716 138.604 712.368 137.179C715.019 135.721 717.058 133.798 718.483 131.412C719.941 129.026 720.67 126.424 720.67 123.607V114.608C720.107 115.072 719.146 115.503 717.787 115.901C716.461 116.298 714.97 116.646 713.312 116.945C711.655 117.243 710.015 117.508 708.39 117.74C706.766 117.972 705.358 118.171 704.165 118.337C701.48 118.701 699.077 119.298 696.956 120.126C694.835 120.955 693.161 122.115 691.935 123.607C690.708 125.065 690.095 126.954 690.095 129.274C690.095 132.589 691.305 135.091 693.724 136.781C696.144 138.472 699.226 139.317 702.971 139.317ZM755.314 151V74.6364H772.765V87.3636H773.56C774.952 82.9555 777.339 79.5582 780.719 77.1719C784.133 74.7524 788.027 73.5426 792.402 73.5426C793.397 73.5426 794.507 73.5923 795.733 73.6918C796.993 73.758 798.037 73.874 798.865 74.0398V90.5952C798.103 90.33 796.893 90.098 795.236 89.8991C793.612 89.6671 792.038 89.5511 790.513 89.5511C787.232 89.5511 784.282 90.2637 781.664 91.6889C779.079 93.081 777.04 95.0199 775.549 97.5057C774.057 99.9915 773.312 102.858 773.312 106.107V151H755.314ZM822.932 179.636C820.48 179.636 818.209 179.438 816.121 179.04C814.066 178.675 812.426 178.244 811.199 177.747L815.376 163.727C817.994 164.49 820.331 164.854 822.386 164.821C824.44 164.788 826.247 164.142 827.805 162.882C829.396 161.656 830.738 159.601 831.832 156.717L833.373 152.591L805.681 74.6364H824.772L842.371 132.307H843.167L860.816 74.6364H879.957L849.381 160.247C847.956 164.291 846.067 167.754 843.714 170.638C841.36 173.554 838.477 175.775 835.063 177.3C831.682 178.857 827.639 179.636 822.932 179.636ZM938.755 49.1818L965.253 129.324H966.297L992.746 49.1818H1013.03L977.135 151H954.365L918.52 49.1818H938.755ZM1024.25 151V74.6364H1042.24V151H1024.25ZM1033.29 63.7983C1030.44 63.7983 1027.99 62.8537 1025.94 60.9645C1023.88 59.0421 1022.85 56.7386 1022.85 54.054C1022.85 51.3362 1023.88 49.0327 1025.94 47.1435C1027.99 45.2211 1030.44 44.2599 1033.29 44.2599C1036.18 44.2599 1038.63 45.2211 1040.65 47.1435C1042.71 49.0327 1043.73 51.3362 1043.73 54.054C1043.73 56.7386 1042.71 59.0421 1040.65 60.9645C1038.63 62.8537 1036.18 63.7983 1033.29 63.7983ZM1119.7 94.821L1103.3 96.6108C1102.83 94.9536 1102.02 93.3958 1100.86 91.9375C1099.74 90.4792 1098.21 89.3026 1096.29 88.4077C1094.37 87.5128 1092.01 87.0653 1089.23 87.0653C1085.48 87.0653 1082.33 87.8774 1079.78 89.5014C1077.26 91.1255 1076.02 93.2301 1076.05 95.8153C1076.02 98.036 1076.83 99.8423 1078.49 101.234C1080.18 102.626 1082.96 103.77 1086.84 104.665L1099.87 107.449C1107.09 109.007 1112.46 111.476 1115.98 114.857C1119.52 118.237 1121.31 122.662 1121.35 128.131C1121.31 132.937 1119.9 137.179 1117.12 140.858C1114.37 144.504 1110.54 147.354 1105.64 149.409C1100.73 151.464 1095.1 152.491 1088.73 152.491C1079.39 152.491 1071.86 150.536 1066.16 146.625C1060.46 142.681 1057.06 137.196 1055.97 130.169L1073.52 128.479C1074.31 131.926 1076 134.527 1078.59 136.284C1081.17 138.041 1084.54 138.919 1088.68 138.919C1092.96 138.919 1096.39 138.041 1098.97 136.284C1101.59 134.527 1102.9 132.357 1102.9 129.771C1102.9 127.584 1102.06 125.777 1100.37 124.352C1098.71 122.927 1096.12 121.833 1092.61 121.071L1079.58 118.337C1072.26 116.812 1066.84 114.243 1063.33 110.631C1059.81 106.985 1058.07 102.378 1058.11 96.8097C1058.07 92.1032 1059.35 88.0265 1061.93 84.5795C1064.55 81.0994 1068.18 78.4148 1072.82 76.5256C1077.5 74.6032 1082.88 73.642 1088.98 73.642C1097.93 73.642 1104.97 75.5478 1110.11 79.3594C1115.28 83.1709 1118.48 88.3248 1119.7 94.821ZM1134.79 151V74.6364H1152.78V151H1134.79ZM1143.83 63.7983C1140.98 63.7983 1138.53 62.8537 1136.48 60.9645C1134.42 59.0421 1133.39 56.7386 1133.39 54.054C1133.39 51.3362 1134.42 49.0327 1136.48 47.1435C1138.53 45.2211 1140.98 44.2599 1143.83 44.2599C1146.72 44.2599 1149.17 45.2211 1151.19 47.1435C1153.25 49.0327 1154.27 51.3362 1154.27 54.054C1154.27 56.7386 1153.25 59.0421 1151.19 60.9645C1149.17 62.8537 1146.72 63.7983 1143.83 63.7983ZM1203.2 152.491C1195.74 152.491 1189.28 150.851 1183.81 147.57C1178.34 144.288 1174.1 139.698 1171.08 133.798C1168.1 127.899 1166.61 121.005 1166.61 113.116C1166.61 105.228 1168.1 98.3177 1171.08 92.3849C1174.1 86.4522 1178.34 81.8452 1183.81 78.5639C1189.28 75.2827 1195.74 73.642 1203.2 73.642C1210.66 73.642 1217.12 75.2827 1222.59 78.5639C1228.06 81.8452 1232.28 86.4522 1235.27 92.3849C1238.28 98.3177 1239.79 105.228 1239.79 113.116C1239.79 121.005 1238.28 127.899 1235.27 133.798C1232.28 139.698 1228.06 144.288 1222.59 147.57C1217.12 150.851 1210.66 152.491 1203.2 152.491ZM1203.3 138.074C1207.34 138.074 1210.72 136.964 1213.44 134.743C1216.16 132.489 1218.18 129.473 1219.51 125.695C1220.86 121.916 1221.54 117.707 1221.54 113.067C1221.54 108.393 1220.86 104.168 1219.51 100.389C1218.18 96.5777 1216.16 93.545 1213.44 91.2912C1210.72 89.0374 1207.34 87.9105 1203.3 87.9105C1199.16 87.9105 1195.71 89.0374 1192.96 91.2912C1190.24 93.545 1188.2 96.5777 1186.84 100.389C1185.52 104.168 1184.85 108.393 1184.85 113.067C1184.85 117.707 1185.52 121.916 1186.84 125.695C1188.2 129.473 1190.24 132.489 1192.96 134.743C1195.71 136.964 1199.16 138.074 1203.3 138.074ZM1271.66 106.256V151H1253.67V74.6364H1270.87V87.6122H1271.76C1273.52 83.3366 1276.32 79.9394 1280.16 77.4205C1284.04 74.9015 1288.83 73.642 1294.53 73.642C1299.8 73.642 1304.39 74.7689 1308.3 77.0227C1312.25 79.2765 1315.3 82.5412 1317.45 86.8168C1319.64 91.0923 1320.72 96.2794 1320.68 102.378V151H1302.69V105.162C1302.69 100.058 1301.36 96.0639 1298.71 93.1804C1296.09 90.2969 1292.46 88.8551 1287.82 88.8551C1284.67 88.8551 1281.87 89.5511 1279.42 90.9432C1277 92.3021 1275.09 94.2741 1273.7 96.8594C1272.34 99.4446 1271.66 102.577 1271.66 106.256Z" fill="white"/>
<defs>
<linearGradient id="paint0_linear_108_95716" x1="58.0557" y1="191.906" x2="146.752" y2="32.2532" gradientUnits="userSpaceOnUse">
<stop stop-color="#B4D9EA"/>
<stop offset="1" stop-color="#DFF994"/>
</linearGradient>
</defs>
</svg>
